<?xml version="1.0" encoding="UTF-8" standalone="no"?>
<!-- Created with Inkscape (http://www.inkscape.org/) -->

<svg
   width="27.622467mm"
   height="27.622467mm"
   viewBox="0 0 27.622467 27.622467"
   version="1.1"
   id="svg5"
   sodipodi:docname="wjtb_wr.svg"
   inkscape:version="1.2.2 (b0a8486541, 2022-12-01)"
   xmlns:inkscape="http://www.inkscape.org/namespaces/inkscape"
   xmlns:sodipodi="http://sodipodi.sourceforge.net/DTD/sodipodi-0.dtd"
   xmlns="http://www.w3.org/2000/svg"
   xmlns:svg="http://www.w3.org/2000/svg">
  <sodipodi:namedview
     id="namedview7"
     pagecolor="#ffffff"
     bordercolor="#000000"
     borderopacity="0.25"
     inkscape:showpageshadow="2"
     inkscape:pageopacity="0.0"
     inkscape:pagecheckerboard="0"
     inkscape:deskcolor="#d1d1d1"
     inkscape:document-units="mm"
     showgrid="false"
     inkscape:zoom="1.7710034"
     inkscape:cx="322.69843"
     inkscape:cy="500.28138"
     inkscape:window-width="1920"
     inkscape:window-height="1048"
     inkscape:window-x="0"
     inkscape:window-y="32"
     inkscape:window-maximized="1"
     inkscape:current-layer="layer1" />
  <defs
     id="defs2" />
  <g
     inkscape:label="Layer 1"
     inkscape:groupmode="layer"
     id="layer1"
     transform="translate(-78.010118,-104.70894)">
    <g
       id="g354"
       transform="translate(-1.8181011,-11.514232)"
       inkscape:export-filename="qr-dark.png"
       inkscape:export-xdpi="800"
       inkscape:export-ydpi="800">
      <rect
         x="79.828224"
         y="116.22317"
         width="27.622465"
         height="27.622465"
         style="fill:#000000;stroke:none;stroke-width:0.238125"
         id="rect3302" />
      <g
         style="fill:#ffffff;stroke:none"
         id="g3306"
         transform="matrix(0.264583,0,0,0.264583,78.293643,114.68859)">
        <path
           d="m 99,100 h -2 c -0.552285,0 -1,-0.447715 -1,-1 v -2 c 0,-0.552285 -0.447715,-1 -1,-1 h -2 c -0.552285,0 -1,0.447715 -1,1 v 2 c 0,0.552285 -0.447715,1 -1,1 h -2 c -0.552285,0 -1,-0.447715 -1,-1 v -2 c 0,-0.552285 -0.447715,-1 -1,-1 h -2 c -0.552285,0 -1,-0.447715 -1,-1 V 81 c 0,-0.552285 -0.447715,-1 -1,-1 h -2 c -0.552285,0 -1,-0.447715 -1,-1 v -2 c 0,-0.552285 0.447715,-1 1,-1 h 6 c 0.552285,0 1,0.447715 1,1 v 6 c 0,0.552285 0.447715,1 1,1 h 2 c 0.552285,0 1,0.447715 1,1 v 2 c 0,0.552285 0.447715,1 1,1 h 2 c 0.552285,0 1,-0.447715 1,-1 v -2 c 0,-0.552285 0.447715,-1 1,-1 h 2 c 0.552285,0 1,0.447715 1,1 v 14 c 0,0.552285 -0.447715,1 -1,1 z m -20,0 h -6 c -0.552285,0 -1,-0.447715 -1,-1 v -2 c 0,-0.552285 0.447715,-1 1,-1 h 2 c 0.552285,0 1,-0.447715 1,-1 v -2 c 0,-0.552285 -0.447715,-1 -1,-1 h -2 c -0.552285,0 -1,0.447715 -1,1 v 2 c 0,0.552285 -0.447715,1 -1,1 h -2 c -0.552285,0 -1,-0.447715 -1,-1 v -2 c 0,-0.552285 -0.447715,-1 -1,-1 h -2 c -0.552285,0 -1,-0.447715 -1,-1 v -2 c 0,-0.552285 -0.447715,-1 -1,-1 h -2 c -0.552285,0 -1,0.447715 -1,1 v 2 c 0,0.552285 -0.447715,1 -1,1 h -2 c -0.552285,0 -1,-0.447715 -1,-1 v -2 c 0,-0.552285 -0.447715,-1 -1,-1 h -2 c -0.552285,0 -1,-0.447715 -1,-1 v -2 c 0,-0.552285 0.447715,-1 1,-1 h 6 c 0.552285,0 1,-0.447715 1,-1 v -6 c 0,-0.552285 0.447715,-1 1,-1 h 2 c 0.552285,0 1,0.447715 1,1 v 2 c 0,0.552285 0.447715,1 1,1 h 2 c 0.552285,0 1,-0.447715 1,-1 v -2 c 0,-0.552285 -0.447715,-1 -1,-1 h -2 c -0.552285,0 -1,-0.447715 -1,-1 v -6 c 0,-0.552285 0.447715,-1 1,-1 h 2 c 0.552285,0 1,-0.447715 1,-1 v -2 c 0,-0.552285 0.447715,-1 1,-1 h 6 c 0.552285,0 1,0.447715 1,1 v 2 c 0,0.552285 0.447715,1 1,1 h 2 c 0.552285,0 1,0.447715 1,1 v 2 c 0,0.552285 -0.447715,1 -1,1 h -6 c -0.552285,0 -1,0.447715 -1,1 v 2 c 0,0.552285 0.447715,1 1,1 h 2 c 0.552285,0 1,0.447715 1,1 v 2 c 0,0.552285 -0.447715,1 -1,1 h -2 c -0.552285,0 -1,0.447715 -1,1 v 2 c 0,0.552285 -0.447715,1 -1,1 h -2 c -0.552285,0 -1,0.447715 -1,1 v 2 c 0,0.552285 0.447715,1 1,1 h 2 c 0.552285,0 1,-0.447715 1,-1 v -2 c 0,-0.552285 0.447715,-1 1,-1 h 2 c 0.552285,0 1,0.447715 1,1 v 2 c 0,0.552285 0.447715,1 1,1 h 2 c 0.552285,0 1,0.447715 1,1 v 10 c 0,0.552285 -0.447715,1 -1,1 z m -20,0 h -2 c -0.552285,0 -1,-0.447715 -1,-1 v -2 c 0,-0.552285 0.447715,-1 1,-1 h 2 c 0.552285,0 1,0.447715 1,1 v 2 c 0,0.552285 -0.447715,1 -1,1 z m -8,0 h -6 c -0.552285,0 -1,-0.447715 -1,-1 V 73 c 0,-0.552285 -0.447715,-1 -1,-1 H 17 c -0.552285,0 -1,-0.447715 -1,-1 v -6 c 0,-0.552285 0.447715,-1 1,-1 h 2 c 0.552285,0 1,0.447715 1,1 v 2 c 0,0.552285 0.447715,1 1,1 h 2 c 0.552285,0 1,-0.447715 1,-1 v -2 c 0,-0.552285 0.447715,-1 1,-1 h 2 c 0.552285,0 1,0.447715 1,1 v 2 c 0,0.552285 0.447715,1 1,1 h 2 c 0.552285,0 1,-0.447715 1,-1 v -2 c 0,-0.552285 0.447715,-1 1,-1 h 6 c 0.552285,0 1,0.447715 1,1 v 2 c 0,0.552285 0.447715,1 1,1 h 6 c 0.552285,0 1,0.447715 1,1 v 2 c 0,0.552285 0.447715,1 1,1 h 2 c 0.552285,0 1,0.447715 1,1 v 2 c 0,0.552285 -0.447715,1 -1,1 h -2 c -0.552285,0 -1,0.447715 -1,1 v 2 c 0,0.552285 0.447715,1 1,1 h 2 c 0.552285,0 1,0.447715 1,1 v 2 c 0,0.552285 -0.447715,1 -1,1 h -2 c -0.552285,0 -1,0.447715 -1,1 v 10 c 0,0.552285 0.447715,1 1,1 h 2 c 0.552285,0 1,0.447715 1,1 v 2 c 0,0.552285 -0.447715,1 -1,1 z M 39,96 H 21 c -0.552285,0 -1,-0.447715 -1,-1 V 77 c 0,-0.552285 0.447715,-1 1,-1 h 18 c 0.552285,0 1,0.447715 1,1 v 18 c 0,0.552285 -0.447715,1 -1,1 z M 36,91 V 81 c 0,-0.552285 -0.447715,-1 -1,-1 H 25 c -0.552285,0 -1,0.447715 -1,1 v 10 c 0,0.552285 0.447715,1 1,1 h 10 c 0.552285,0 1,-0.447715 1,-1 z M 95,80 h -2 c -0.552285,0 -1,-0.447715 -1,-1 v -2 c 0,-0.552285 -0.447715,-1 -1,-1 h -2 c -0.552285,0 -1,-0.447715 -1,-1 v -2 c 0,-0.552285 0.447715,-1 1,-1 h 6 c 0.552285,0 1,0.447715 1,1 v 6 c 0,0.552285 -0.447715,1 -1,1 z m 0,-12 h -2 c -0.552285,0 -1,-0.447715 -1,-1 v -2 c 0,-0.552285 -0.447715,-1 -1,-1 h -2 c -0.552285,0 -1,-0.447715 -1,-1 v -2 c 0,-0.552285 0.447715,-1 1,-1 h 2 c 0.552285,0 1,-0.447715 1,-1 v -2 c 0,-0.552285 0.447715,-1 1,-1 h 2 c 0.552285,0 1,0.447715 1,1 v 10 c 0,0.552285 -0.447715,1 -1,1 z m -8,0 h -6 c -0.552285,0 -1,-0.447715 -1,-1 v -2 c 0,-0.552285 -0.447715,-1 -1,-1 h -2 c -0.552285,0 -1,-0.447715 -1,-1 v -2 c 0,-0.552285 0.447715,-1 1,-1 h 2 c 0.552285,0 1,-0.447715 1,-1 v -6 c 0,-0.552285 -0.447715,-1 -1,-1 h -2 c -0.552285,0 -1,0.447715 -1,1 v 6 c 0,0.552285 -0.447715,1 -1,1 H 65 c -0.552285,0 -1,-0.447715 -1,-1 v -2 c 0,-0.552285 0.447715,-1 1,-1 h 6 c 0.552285,0 1,-0.447715 1,-1 v -2 c 0,-0.552285 -0.447715,-1 -1,-1 h -2 c -0.552285,0 -1,-0.447715 -1,-1 v -2 c 0,-0.552285 -0.447715,-1 -1,-1 h -6 c -0.552285,0 -1,0.447715 -1,1 v 2 c 0,0.552285 -0.447715,1 -1,1 H 49 c -0.552285,0 -1,0.447715 -1,1 v 2 c 0,0.552285 -0.447715,1 -1,1 h -6 c -0.552285,0 -1,-0.447715 -1,-1 v -2 c 0,-0.552285 0.447715,-1 1,-1 h 2 c 0.552285,0 1,-0.447715 1,-1 v -2 c 0,-0.552285 -0.447715,-1 -1,-1 h -6 c -0.552285,0 -1,0.447715 -1,1 v 2 c 0,0.552285 -0.447715,1 -1,1 h -2 c -0.552285,0 -1,-0.447715 -1,-1 v -2 c 0,-0.552285 -0.447715,-1 -1,-1 H 21 c -0.552285,0 -1,0.447715 -1,1 v 2 c 0,0.552285 -0.447715,1 -1,1 h -2 c -0.552285,0 -1,-0.447715 -1,-1 v -6 c 0,-0.552285 0.447715,-1 1,-1 h 26 c 0.552285,0 1,-0.447715 1,-1 V 17 c 0,-0.552285 0.447715,-1 1,-1 h 10 c 0.552285,0 1,0.447715 1,1 v 10 c 0,0.552285 0.447715,1 1,1 h 2 c 0.552285,0 1,0.447715 1,1 v 2 c 0,0.552285 -0.447715,1 -1,1 h -2 c -0.552285,0 -1,0.447715 -1,1 v 2 c 0,0.552285 -0.447715,1 -1,1 h -2 c -0.552285,0 -1,0.447715 -1,1 v 2 c 0,0.552285 -0.447715,1 -1,1 h -2 c -0.552285,0 -1,0.447715 -1,1 v 2 c 0,0.552285 0.447715,1 1,1 h 2 c 0.552285,0 1,-0.447715 1,-1 v -2 c 0,-0.552285 0.447715,-1 1,-1 h 2 c 0.552285,0 1,0.447715 1,1 v 2 c 0,0.552285 0.447715,1 1,1 h 2 c 0.552285,0 1,-0.447715 1,-1 v -2 c 0,-0.552285 0.447715,-1 1,-1 h 2 c 0.552285,0 1,0.447715 1,1 v 2 c 0,0.552285 0.447715,1 1,1 h 2 c 0.552285,0 1,-0.447715 1,-1 v -2 c 0,-0.552285 -0.447715,-1 -1,-1 h -2 c -0.552285,0 -1,-0.447715 -1,-1 v -2 c 0,-0.552285 -0.447715,-1 -1,-1 h -2 c -0.552285,0 -1,-0.447715 -1,-1 v -2 c 0,-0.552285 0.447715,-1 1,-1 h 2 c 0.552285,0 1,-0.447715 1,-1 v -6 c 0,-0.552285 -0.447715,-1 -1,-1 h -2 c -0.552285,0 -1,-0.447715 -1,-1 v -2 c 0,-0.552285 0.447715,-1 1,-1 h 2 c 0.552285,0 1,-0.447715 1,-1 v -2 c 0,-0.552285 0.447715,-1 1,-1 h 6 c 0.552285,0 1,0.447715 1,1 v 26 c 0,0.552285 0.447715,1 1,1 h 26 c 0.552285,0 1,0.447715 1,1 v 6 c 0,0.552285 -0.447715,1 -1,1 h -2 c -0.552285,0 -1,-0.447715 -1,-1 v -2 c 0,-0.552285 -0.447715,-1 -1,-1 h -6 c -0.552285,0 -1,0.447715 -1,1 v 2 c 0,0.552285 0.447715,1 1,1 h 2 c 0.552285,0 1,0.447715 1,1 v 2 c 0,0.552285 -0.447715,1 -1,1 h -6 c -0.552285,0 -1,0.447715 -1,1 v 6 c 0,0.552285 0.447715,1 1,1 h 2 c 0.552285,0 1,0.447715 1,1 v 2 c 0,0.552285 -0.447715,1 -1,1 z m -36,0 h -2 c -0.552285,0 -1,-0.447715 -1,-1 v -2 c 0,-0.552285 0.447715,-1 1,-1 h 2 c 0.552285,0 1,0.447715 1,1 v 2 c 0,0.552285 -0.447715,1 -1,1 z m 8,-4 h -2 c -0.552285,0 -1,-0.447715 -1,-1 v -2 c 0,-0.552285 -0.447715,-1 -1,-1 h -2 c -0.552285,0 -1,-0.447715 -1,-1 v -2 c 0,-0.552285 0.447715,-1 1,-1 h 6 c 0.552285,0 1,0.447715 1,1 v 6 c 0,0.552285 -0.447715,1 -1,1 z m -12,0 h -6 c -0.552285,0 -1,-0.447715 -1,-1 v -2 c 0,-0.552285 0.447715,-1 1,-1 h 6 c 0.552285,0 1,0.447715 1,1 v 2 c 0,0.552285 -0.447715,1 -1,1 z m -24,0 h -2 c -0.552285,0 -1,-0.447715 -1,-1 v -2 c 0,-0.552285 0.447715,-1 1,-1 h 2 c 0.552285,0 1,0.447715 1,1 v 2 c 0,0.552285 -0.447715,1 -1,1 z m 16,-4 h -2 c -0.552285,0 -1,-0.447715 -1,-1 v -2 c 0,-0.552285 0.447715,-1 1,-1 h 2 c 0.552285,0 1,0.447715 1,1 v 2 c 0,0.552285 -0.447715,1 -1,1 z M 27,56 h -6 c -0.552285,0 -1,-0.447715 -1,-1 v -2 c 0,-0.552285 0.447715,-1 1,-1 h 6 c 0.552285,0 1,0.447715 1,1 v 2 c 0,0.552285 -0.447715,1 -1,1 z M 95,40 H 77 c -0.552285,0 -1,-0.447715 -1,-1 V 21 c 0,-0.552285 0.447715,-1 1,-1 h 18 c 0.552285,0 1,0.447715 1,1 v 18 c 0,0.552285 -0.447715,1 -1,1 z M 39,40 H 21 c -0.552285,0 -1,-0.447715 -1,-1 V 21 c 0,-0.552285 0.447715,-1 1,-1 h 18 c 0.552285,0 1,0.447715 1,1 v 18 c 0,0.552285 -0.447715,1 -1,1 z M 92,35 V 25 c 0,-0.552285 -0.447715,-1 -1,-1 H 81 c -0.552285,0 -1,0.447715 -1,1 v 10 c 0,0.552285 0.447715,1 1,1 h 10 c 0.552285,0 1,-0.447715 1,-1 z M 36,35 V 25 c 0,-0.552285 -0.447715,-1 -1,-1 H 25 c -0.552285,0 -1,0.447715 -1,1 v 10 c 0,0.552285 0.447715,1 1,1 h 10 c 0.552285,0 1,-0.447715 1,-1 z m 16,-8 v -6 c 0,-0.552285 -0.447715,-1 -1,-1 h -2 c -0.552285,0 -1,0.447715 -1,1 v 6 c 0,0.552285 0.447715,1 1,1 h 2 c 0.552285,0 1,-0.447715 1,-1 z"
           id="path3304" />
      </g>
    </g>
  </g>
</svg>
