<?xml version="1.0" encoding="UTF-8" standalone="no"?>
<!-- Created with Inkscape (http://www.inkscape.org/) -->

<svg
   width="27.622467mm"
   height="27.622467mm"
   viewBox="0 0 27.622467 27.622467"
   version="1.1"
   id="svg5"
   sodipodi:docname="wjtb_wr.svg"
   inkscape:version="1.2.2 (b0a8486541, 2022-12-01)"
   xmlns:inkscape="http://www.inkscape.org/namespaces/inkscape"
   xmlns:sodipodi="http://sodipodi.sourceforge.net/DTD/sodipodi-0.dtd"
   xmlns="http://www.w3.org/2000/svg"
   xmlns:svg="http://www.w3.org/2000/svg">
  <sodipodi:namedview
     id="namedview7"
     pagecolor="#ffffff"
     bordercolor="#000000"
     borderopacity="0.25"
     inkscape:showpageshadow="2"
     inkscape:pageopacity="0.0"
     inkscape:pagecheckerboard="0"
     inkscape:deskcolor="#d1d1d1"
     inkscape:document-units="mm"
     showgrid="false"
     inkscape:zoom="1.7710034"
     inkscape:cx="322.69843"
     inkscape:cy="500.28138"
     inkscape:window-width="1920"
     inkscape:window-height="1048"
     inkscape:window-x="0"
     inkscape:window-y="32"
     inkscape:window-maximized="1"
     inkscape:current-layer="layer1" />
  <defs
     id="defs2" />
  <g
     inkscape:label="Layer 1"
     inkscape:groupmode="layer"
     id="layer1"
     transform="translate(-116.88031,-100.91368)">
    <g
       id="g359"
       transform="translate(-3.4089349,-14.166024)"
       inkscape:export-filename="qr-light.png"
       inkscape:export-xdpi="800"
       inkscape:export-ydpi="800">
      <rect
         x="120.28925"
         y="115.0797"
         width="27.622465"
         height="27.622465"
         style="fill:#ffffff;stroke:none;stroke-width:0.238125"
         id="rect3252" />
      <g
         style="fill:#000000;stroke:none"
         id="g3256"
         transform="matrix(0.264583,0,0,0.264583,118.75466,113.54512)">
        <path
           d="m 95,100 h -2 c -0.552285,0 -1,-0.447715 -1,-1 v -2 c 0,-0.552285 0.447715,-1 1,-1 h 2 c 0.552285,0 1,0.447715 1,1 v 2 c 0,0.552285 -0.447715,1 -1,1 z m -8,0 h -6 c -0.552285,0 -1,-0.447715 -1,-1 V 89 c 0,-0.552285 -0.447715,-1 -1,-1 h -2 c -0.552285,0 -1,-0.447715 -1,-1 v -2 c 0,-0.552285 -0.447715,-1 -1,-1 h -2 c -0.552285,0 -1,-0.447715 -1,-1 v -2 c 0,-0.552285 0.447715,-1 1,-1 h 2 c 0.552285,0 1,-0.447715 1,-1 v -2 c 0,-0.552285 -0.447715,-1 -1,-1 h -2 c -0.552285,0 -1,-0.447715 -1,-1 v -2 c 0,-0.552285 0.447715,-1 1,-1 h 6 c 0.552285,0 1,-0.447715 1,-1 v -2 c 0,-0.552285 0.447715,-1 1,-1 h 6 c 0.552285,0 1,-0.447715 1,-1 v -2 c 0,-0.552285 0.447715,-1 1,-1 h 2 c 0.552285,0 1,0.447715 1,1 v 2 c 0,0.552285 0.447715,1 1,1 h 2 c 0.552285,0 1,-0.447715 1,-1 V 57 c 0,-0.552285 -0.447715,-1 -1,-1 h -2 c -0.552285,0 -1,-0.447715 -1,-1 v -2 c 0,-0.552285 -0.447715,-1 -1,-1 h -2 c -0.552285,0 -1,-0.447715 -1,-1 v -2 c 0,-0.552285 0.447715,-1 1,-1 h 6 c 0.552285,0 1,0.447715 1,1 v 2 c 0,0.552285 0.447715,1 1,1 h 2 c 0.552285,0 1,0.447715 1,1 v 30 c 0,0.552285 -0.447715,1 -1,1 h -2 c -0.552285,0 -1,0.447715 -1,1 v 2 c 0,0.552285 -0.447715,1 -1,1 h -2 c -0.552285,0 -1,-0.447715 -1,-1 v -2 c 0,-0.552285 -0.447715,-1 -1,-1 h -2 c -0.552285,0 -1,-0.447715 -1,-1 v -6 c 0,-0.552285 0.447715,-1 1,-1 h 2 c 0.552285,0 1,0.447715 1,1 v 2 c 0,0.552285 0.447715,1 1,1 h 2 c 0.552285,0 1,-0.447715 1,-1 v -6 c 0,-0.552285 -0.447715,-1 -1,-1 h -6 c -0.552285,0 -1,0.447715 -1,1 v 2 c 0,0.552285 -0.447715,1 -1,1 h -6 c -0.552285,0 -1,0.447715 -1,1 v 2 c 0,0.552285 0.447715,1 1,1 h 2 c 0.552285,0 1,0.447715 1,1 v 14 c 0,0.552285 0.447715,1 1,1 h 2 c 0.552285,0 1,0.447715 1,1 v 2 c 0,0.552285 -0.447715,1 -1,1 z m -16,0 H 61 c -0.552285,0 -1,-0.447715 -1,-1 v -2 c 0,-0.552285 -0.447715,-1 -1,-1 h -2 c -0.552285,0 -1,0.447715 -1,1 v 2 c 0,0.552285 -0.447715,1 -1,1 h -2 c -0.552285,0 -1,-0.447715 -1,-1 v -2 c 0,-0.552285 -0.447715,-1 -1,-1 h -2 c -0.552285,0 -1,-0.447715 -1,-1 V 85 c 0,-0.552285 0.447715,-1 1,-1 h 2 c 0.552285,0 1,0.447715 1,1 v 2 c 0,0.552285 0.447715,1 1,1 h 2 c 0.552285,0 1,0.447715 1,1 v 2 c 0,0.552285 0.447715,1 1,1 h 2 c 0.552285,0 1,-0.447715 1,-1 v -2 c 0,-0.552285 0.447715,-1 1,-1 h 2 c 0.552285,0 1,0.447715 1,1 v 2 c 0,0.552285 0.447715,1 1,1 h 2 c 0.552285,0 1,0.447715 1,1 v 2 c 0,0.552285 0.447715,1 1,1 h 2 c 0.552285,0 1,0.447715 1,1 v 2 c 0,0.552285 -0.447715,1 -1,1 z m -28,0 H 17 c -0.552285,0 -1,-0.447715 -1,-1 V 73 c 0,-0.552285 0.447715,-1 1,-1 h 26 c 0.552285,0 1,0.447715 1,1 v 26 c 0,0.552285 -0.447715,1 -1,1 z m 32,-4 h -2 c -0.552285,0 -1,-0.447715 -1,-1 v -2 c 0,-0.552285 0.447715,-1 1,-1 h 2 c 0.552285,0 1,0.447715 1,1 v 2 c 0,0.552285 -0.447715,1 -1,1 z M 40,95 V 77 c 0,-0.552285 -0.447715,-1 -1,-1 H 21 c -0.552285,0 -1,0.447715 -1,1 v 18 c 0,0.552285 0.447715,1 1,1 h 18 c 0.552285,0 1,-0.447715 1,-1 z M 35,92 H 25 c -0.552285,0 -1,-0.447715 -1,-1 V 81 c 0,-0.552285 0.447715,-1 1,-1 h 10 c 0.552285,0 1,0.447715 1,1 v 10 c 0,0.552285 -0.447715,1 -1,1 z m 36,-4 h -2 c -0.552285,0 -1,-0.447715 -1,-1 v -2 c 0,-0.552285 0.447715,-1 1,-1 h 2 c 0.552285,0 1,0.447715 1,1 v 2 c 0,0.552285 -0.447715,1 -1,1 z M 59,84 h -6 c -0.552285,0 -1,-0.447715 -1,-1 v -2 c 0,-0.552285 -0.447715,-1 -1,-1 h -2 c -0.552285,0 -1,-0.447715 -1,-1 v -2 c 0,-0.552285 0.447715,-1 1,-1 h 2 c 0.552285,0 1,-0.447715 1,-1 v -2 c 0,-0.552285 -0.447715,-1 -1,-1 h -2 c -0.552285,0 -1,-0.447715 -1,-1 v -2 c 0,-0.552285 0.447715,-1 1,-1 h 2 c 0.552285,0 1,-0.447715 1,-1 v -2 c 0,-0.552285 -0.447715,-1 -1,-1 h -2 c -0.552285,0 -1,-0.447715 -1,-1 v -2 c 0,-0.552285 -0.447715,-1 -1,-1 h -6 c -0.552285,0 -1,-0.447715 -1,-1 v -2 c 0,-0.552285 0.447715,-1 1,-1 h 6 c 0.552285,0 1,-0.447715 1,-1 v -2 c 0,-0.552285 0.447715,-1 1,-1 h 10 c 0.552285,0 1,-0.447715 1,-1 v -2 c 0,-0.552285 0.447715,-1 1,-1 h 6 c 0.552285,0 1,0.447715 1,1 v 2 c 0,0.552285 0.447715,1 1,1 h 2 c 0.552285,0 1,0.447715 1,1 v 2 c 0,0.552285 -0.447715,1 -1,1 h -6 c -0.552285,0 -1,0.447715 -1,1 v 2 c 0,0.552285 0.447715,1 1,1 h 10 c 0.552285,0 1,0.447715 1,1 v 2 c 0,0.552285 -0.447715,1 -1,1 h -6 c -0.552285,0 -1,0.447715 -1,1 v 2 c 0,0.552285 -0.447715,1 -1,1 h -2 c -0.552285,0 -1,0.447715 -1,1 v 6 c 0,0.552285 -0.447715,1 -1,1 h -2 c -0.552285,0 -1,0.447715 -1,1 v 6 c 0,0.552285 -0.447715,1 -1,1 z m 8,-4 h -2 c -0.552285,0 -1,-0.447715 -1,-1 v -2 c 0,-0.552285 0.447715,-1 1,-1 h 2 c 0.552285,0 1,0.447715 1,1 v 2 c 0,0.552285 -0.447715,1 -1,1 z M 79,68 h -2 c -0.552285,0 -1,-0.447715 -1,-1 v -2 c 0,-0.552285 0.447715,-1 1,-1 h 2 c 0.552285,0 1,0.447715 1,1 v 2 c 0,0.552285 -0.447715,1 -1,1 z m -32,0 h -6 c -0.552285,0 -1,-0.447715 -1,-1 v -2 c 0,-0.552285 0.447715,-1 1,-1 h 6 c 0.552285,0 1,0.447715 1,1 v 2 c 0,0.552285 -0.447715,1 -1,1 z m -16,0 h -2 c -0.552285,0 -1,-0.447715 -1,-1 v -2 c 0,-0.552285 -0.447715,-1 -1,-1 h -2 c -0.552285,0 -1,-0.447715 -1,-1 v -2 c 0,-0.552285 -0.447715,-1 -1,-1 h -2 c -0.552285,0 -1,0.447715 -1,1 v 2 c 0,0.552285 -0.447715,1 -1,1 h -2 c -0.552285,0 -1,-0.447715 -1,-1 V 53 c 0,-0.552285 0.447715,-1 1,-1 h 2 c 0.552285,0 1,0.447715 1,1 v 2 c 0,0.552285 0.447715,1 1,1 h 6 c 0.552285,0 1,-0.447715 1,-1 v -2 c 0,-0.552285 -0.447715,-1 -1,-1 h -6 c -0.552285,0 -1,-0.447715 -1,-1 v -2 c 0,-0.552285 0.447715,-1 1,-1 h 10 c 0.552285,0 1,0.447715 1,1 v 2 c 0,0.552285 0.447715,1 1,1 h 2 c 0.552285,0 1,-0.447715 1,-1 v -2 c 0,-0.552285 0.447715,-1 1,-1 h 6 c 0.552285,0 1,0.447715 1,1 v 2 c 0,0.552285 -0.447715,1 -1,1 h -2 c -0.552285,0 -1,0.447715 -1,1 v 2 c 0,0.552285 -0.447715,1 -1,1 h -2 c -0.552285,0 -1,0.447715 -1,1 v 2 c 0,0.552285 0.447715,1 1,1 h 2 c 0.552285,0 1,0.447715 1,1 v 2 c 0,0.552285 -0.447715,1 -1,1 h -6 c -0.552285,0 -1,0.447715 -1,1 v 2 c 0,0.552285 -0.447715,1 -1,1 z m -8,0 h -2 c -0.552285,0 -1,-0.447715 -1,-1 v -2 c 0,-0.552285 0.447715,-1 1,-1 h 2 c 0.552285,0 1,0.447715 1,1 v 2 c 0,0.552285 -0.447715,1 -1,1 z m 64,-4 h -2 c -0.552285,0 -1,-0.447715 -1,-1 v -6 c 0,-0.552285 0.447715,-1 1,-1 h 6 c 0.552285,0 1,0.447715 1,1 v 2 c 0,0.552285 -0.447715,1 -1,1 h -2 c -0.552285,0 -1,0.447715 -1,1 v 2 c 0,0.552285 -0.447715,1 -1,1 z M 60,63 v -6 c 0,-0.552285 -0.447715,-1 -1,-1 h -6 c -0.552285,0 -1,0.447715 -1,1 v 2 c 0,0.552285 0.447715,1 1,1 h 2 c 0.552285,0 1,0.447715 1,1 v 2 c 0,0.552285 0.447715,1 1,1 h 2 c 0.552285,0 1,-0.447715 1,-1 z m 19,-3 h -2 c -0.552285,0 -1,-0.447715 -1,-1 v -6 c 0,-0.552285 0.447715,-1 1,-1 h 2 c 0.552285,0 1,0.447715 1,1 v 6 c 0,0.552285 -0.447715,1 -1,1 z M 99,44 H 73 c -0.552285,0 -1,-0.447715 -1,-1 V 17 c 0,-0.552285 0.447715,-1 1,-1 h 26 c 0.552285,0 1,0.447715 1,1 v 26 c 0,0.552285 -0.447715,1 -1,1 z m -32,0 h -2 c -0.552285,0 -1,-0.447715 -1,-1 v -2 c 0,-0.552285 0.447715,-1 1,-1 h 2 c 0.552285,0 1,0.447715 1,1 v 2 c 0,0.552285 -0.447715,1 -1,1 z m -8,0 h -2 c -0.552285,0 -1,-0.447715 -1,-1 v -2 c 0,-0.552285 -0.447715,-1 -1,-1 h -2 c -0.552285,0 -1,-0.447715 -1,-1 v -2 c 0,-0.552285 0.447715,-1 1,-1 h 2 c 0.552285,0 1,-0.447715 1,-1 v -2 c 0,-0.552285 0.447715,-1 1,-1 h 2 c 0.552285,0 1,0.447715 1,1 v 2 c 0,0.552285 0.447715,1 1,1 h 2 c 0.552285,0 1,0.447715 1,1 v 2 c 0,0.552285 -0.447715,1 -1,1 h -2 c -0.552285,0 -1,0.447715 -1,1 v 2 c 0,0.552285 -0.447715,1 -1,1 z m -8,0 h -2 c -0.552285,0 -1,-0.447715 -1,-1 v -2 c 0,-0.552285 0.447715,-1 1,-1 h 2 c 0.552285,0 1,0.447715 1,1 v 2 c 0,0.552285 -0.447715,1 -1,1 z m -8,0 H 17 c -0.552285,0 -1,-0.447715 -1,-1 V 17 c 0,-0.552285 0.447715,-1 1,-1 h 26 c 0.552285,0 1,0.447715 1,1 v 26 c 0,0.552285 -0.447715,1 -1,1 z M 96,39 V 21 c 0,-0.552285 -0.447715,-1 -1,-1 H 77 c -0.552285,0 -1,0.447715 -1,1 v 18 c 0,0.552285 0.447715,1 1,1 h 18 c 0.552285,0 1,-0.447715 1,-1 z M 40,39 V 21 c 0,-0.552285 -0.447715,-1 -1,-1 H 21 c -0.552285,0 -1,0.447715 -1,1 v 18 c 0,0.552285 0.447715,1 1,1 h 18 c 0.552285,0 1,-0.447715 1,-1 z M 91,36 H 81 c -0.552285,0 -1,-0.447715 -1,-1 V 25 c 0,-0.552285 0.447715,-1 1,-1 h 10 c 0.552285,0 1,0.447715 1,1 v 10 c 0,0.552285 -0.447715,1 -1,1 z M 35,36 H 25 c -0.552285,0 -1,-0.447715 -1,-1 V 25 c 0,-0.552285 0.447715,-1 1,-1 h 10 c 0.552285,0 1,0.447715 1,1 v 10 c 0,0.552285 -0.447715,1 -1,1 z m 28,-4 h -2 c -0.552285,0 -1,-0.447715 -1,-1 v -2 c 0,-0.552285 -0.447715,-1 -1,-1 h -2 c -0.552285,0 -1,-0.447715 -1,-1 V 17 c 0,-0.552285 0.447715,-1 1,-1 h 6 c 0.552285,0 1,0.447715 1,1 v 2 c 0,0.552285 -0.447715,1 -1,1 h -2 c -0.552285,0 -1,0.447715 -1,1 v 2 c 0,0.552285 0.447715,1 1,1 h 2 c 0.552285,0 1,0.447715 1,1 v 6 c 0,0.552285 -0.447715,1 -1,1 z M 51,28 h -2 c -0.552285,0 -1,-0.447715 -1,-1 v -6 c 0,-0.552285 0.447715,-1 1,-1 h 2 c 0.552285,0 1,0.447715 1,1 v 6 c 0,0.552285 -0.447715,1 -1,1 z"
           id="path3254" />
      </g>
    </g>
  </g>
</svg>
