<?xml version="1.0" encoding="UTF-8" standalone="no"?>
<!-- Created with Inkscape (http://www.inkscape.org/) -->

<svg
   width="300mm"
   height="300mm"
   viewBox="0 0 300 300"
   version="1.1"
   id="svg5"
   inkscape:version="1.2.2 (b0a8486541, 2022-12-01)"
   sodipodi:docname="RadioIcons.svg"
   xmlns:inkscape="http://www.inkscape.org/namespaces/inkscape"
   xmlns:sodipodi="http://sodipodi.sourceforge.net/DTD/sodipodi-0.dtd"
   xmlns="http://www.w3.org/2000/svg"
   xmlns:svg="http://www.w3.org/2000/svg">
  <sodipodi:namedview
     id="namedview7"
     pagecolor="#181818"
     bordercolor="#666666"
     borderopacity="1.0"
     inkscape:pageshadow="2"
     inkscape:pageopacity="0"
     inkscape:pagecheckerboard="false"
     inkscape:document-units="mm"
     showgrid="false"
     inkscape:zoom="0.69664703"
     inkscape:cx="666.7652"
     inkscape:cy="600.73463"
     inkscape:window-width="1920"
     inkscape:window-height="1016"
     inkscape:window-x="0"
     inkscape:window-y="0"
     inkscape:window-maximized="1"
     inkscape:current-layer="layer1"
     fit-margin-top="0"
     fit-margin-left="0"
     fit-margin-right="0"
     fit-margin-bottom="0"
     inkscape:showpageshadow="2"
     inkscape:deskcolor="#181818" />
  <defs
     id="defs2" />
  <g
     inkscape:label="Layer 1"
     inkscape:groupmode="layer"
     id="layer1"
     transform="translate(-222.33655,-20.143874)">
    <g
       id="g3087">
      <path
         style="fill:#1d1d1d;fill-opacity:1;stroke:#000000;stroke-width:0.264583px;stroke-linecap:butt;stroke-linejoin:miter;stroke-opacity:1"
         d="m 335.4485,90.685906 13.64003,19.295054 16.52464,13.82813 13.01921,3.74893 7.55757,-5.24415 1.08171,-17.61077 -6.05796,-19.345189 -12.15546,-23.93894 -20.69313,-22.205247 -15.99769,-8.304266 -7.47125,0.97763 -2.71511,10.881604 1.09518,17.243341 6.23105,17.663036 z"
         id="path20045" />
      <path
         style="fill:#1d1d1d;fill-opacity:1;stroke:#000000;stroke-width:0.264583px;stroke-linecap:butt;stroke-linejoin:miter;stroke-opacity:1"
         d="m 291.52449,146.09 22.59322,43.64265 -17.49238,10.55517 -23.80988,-43.75737 18.70904,-10.44045"
         id="path19897" />
      <path
         style="fill:#1d1d1d;fill-opacity:1;stroke:#000000;stroke-width:0.264583px;stroke-linecap:butt;stroke-linejoin:miter;stroke-opacity:1"
         d="m 282.34819,101.75403 1.88508,14.46944 10.82351,16.9805 9.21851,6.3732 24.82159,-9.17882 27.22061,-4.29161 11.50281,-0.22104 -14.84193,-11.48852 -13.49423,-16.044511 -9.97685,-20.677598 -7.02447,-24.511793 -4.63462,1.368863 -9.3578,18.997444 -16.82902,19.620966 -9.31319,8.603479"
         id="path19749" />
      <path
         style="fill:#b6b6b6;fill-opacity:1;stroke:none;stroke-width:0.264583px;stroke-linecap:butt;stroke-linejoin:miter;stroke-opacity:1"
         d="m 242.38683,162.01526 7.38466,3.08996 27.22917,-12.74218 27.27463,-12.78585 -13.3574,-10.85968 -6.68462,-12.49403 -1.88508,-14.46944 -12.31285,10.64818 -17.4724,12.34688 -16.02088,14.18353 -2.81482,8.89214 z"
         id="path13206" />
      <path
         style="fill:none;stroke:#ffffff;stroke-width:5;stroke-linecap:butt;stroke-linejoin:miter;stroke-miterlimit:4;stroke-dasharray:none;stroke-opacity:1"
         d="m 255.77609,163.73215 c 10.06411,-4.32496 68.36224,-45.26509 120.75754,-36.55044 15.79699,2.62744 12.98338,-31.352914 -3.64443,-59.18771 -16.62781,-27.83478 -47.06983,-49.523987 -49.79232,-30.311582 -7.05303,49.772668 -69.0994,85.608942 -81.97478,95.358652 -16.75535,12.68775 -0.48372,37.19639 14.65399,30.69108 z"
         id="path1719"
         sodipodi:nodetypes="ssssss" />
      <path
         style="fill:none;fill-opacity:1;stroke:#ffffff;stroke-width:5;stroke-linecap:butt;stroke-linejoin:miter;stroke-miterlimit:4;stroke-dasharray:none;stroke-opacity:1"
         d="m 272.81545,156.53046 23.80987,43.75737 17.4924,-10.55517 L 291.52448,146.09"
         id="path4266"
         sodipodi:nodetypes="cccc" />
      <path
         style="fill:none;stroke:#ffffff;stroke-width:5;stroke-linecap:butt;stroke-linejoin:miter;stroke-miterlimit:4;stroke-dasharray:none;stroke-opacity:1"
         d="m 322.18107,42.768696 c -2.89594,21.511524 21.53908,75.259904 49.5877,83.799914"
         id="path4983"
         sodipodi:nodetypes="cc" />
      <path
         style="fill:none;fill-opacity:1;stroke:#ffffff;stroke-width:5;stroke-linecap:butt;stroke-linejoin:miter;stroke-miterlimit:4;stroke-dasharray:none;stroke-opacity:1"
         d="M 334.27897,83.409961 353.6308,74.895485 359.66621,84.89712 343.187,100.90789"
         id="path7395"
         sodipodi:nodetypes="cccc" />
      <path
         style="fill:none;stroke:#ffffff;stroke-width:5;stroke-linecap:butt;stroke-linejoin:miter;stroke-miterlimit:4;stroke-dasharray:none;stroke-opacity:1"
         d="m 282.34819,101.75404 c -0.97499,16.56392 11.14875,33.23286 21.9271,37.82315"
         id="path9793"
         sodipodi:nodetypes="cc" />
    </g>
    <g
       id="g3107"
       transform="matrix(-1,0,0,1,737.53195,111.12501)">
      <path
         style="fill:#1d1d1d;fill-opacity:1;stroke:#000000;stroke-width:0.264583px;stroke-linecap:butt;stroke-linejoin:miter;stroke-opacity:1"
         d="m 335.4485,90.685906 13.64003,19.295054 16.52464,13.82813 13.01921,3.74893 7.55757,-5.24415 1.08171,-17.61077 -6.05796,-19.345189 -12.15546,-23.93894 -20.69313,-22.205247 -15.99769,-8.304266 -7.47125,0.97763 -2.71511,10.881604 1.09518,17.243341 6.23105,17.663036 z"
         id="path3089" />
      <path
         style="fill:#1d1d1d;fill-opacity:1;stroke:#000000;stroke-width:0.264583px;stroke-linecap:butt;stroke-linejoin:miter;stroke-opacity:1"
         d="m 291.52449,146.09 22.59322,43.64265 -17.49238,10.55517 -23.80988,-43.75737 18.70904,-10.44045"
         id="path3091" />
      <path
         style="fill:#1d1d1d;fill-opacity:1;stroke:#000000;stroke-width:0.264583px;stroke-linecap:butt;stroke-linejoin:miter;stroke-opacity:1"
         d="m 282.34819,101.75403 1.88508,14.46944 10.82351,16.9805 9.21851,6.3732 24.82159,-9.17882 27.22061,-4.29161 11.50281,-0.22104 -14.84193,-11.48852 -13.49423,-16.044511 -9.97685,-20.677598 -7.02447,-24.511793 -4.63462,1.368863 -9.3578,18.997444 -16.82902,19.620966 -9.31319,8.603479"
         id="path3093" />
      <path
         style="fill:#b6b6b6;fill-opacity:1;stroke:none;stroke-width:0.264583px;stroke-linecap:butt;stroke-linejoin:miter;stroke-opacity:1"
         d="m 242.38683,162.01526 7.38466,3.08996 27.22917,-12.74218 27.27463,-12.78585 -13.3574,-10.85968 -6.68462,-12.49403 -1.88508,-14.46944 -12.31285,10.64818 -17.4724,12.34688 -16.02088,14.18353 -2.81482,8.89214 z"
         id="path3095" />
      <path
         style="fill:none;stroke:#ffffff;stroke-width:5;stroke-linecap:butt;stroke-linejoin:miter;stroke-miterlimit:4;stroke-dasharray:none;stroke-opacity:1"
         d="m 255.77609,163.73215 c 10.06411,-4.32496 68.36224,-45.26509 120.75754,-36.55044 15.79699,2.62744 12.98338,-31.352914 -3.64443,-59.18771 -16.62781,-27.83478 -47.06983,-49.523987 -49.79232,-30.311582 -7.05303,49.772668 -69.0994,85.608942 -81.97478,95.358652 -16.75535,12.68775 -0.48372,37.19639 14.65399,30.69108 z"
         id="path3097"
         sodipodi:nodetypes="ssssss" />
      <path
         style="fill:none;fill-opacity:1;stroke:#ffffff;stroke-width:5;stroke-linecap:butt;stroke-linejoin:miter;stroke-miterlimit:4;stroke-dasharray:none;stroke-opacity:1"
         d="m 272.81545,156.53046 23.80987,43.75737 17.4924,-10.55517 L 291.52448,146.09"
         id="path3099"
         sodipodi:nodetypes="cccc" />
      <path
         style="fill:none;stroke:#ffffff;stroke-width:5;stroke-linecap:butt;stroke-linejoin:miter;stroke-miterlimit:4;stroke-dasharray:none;stroke-opacity:1"
         d="m 322.18107,42.768696 c -2.89594,21.511524 21.53908,75.259904 49.5877,83.799914"
         id="path3101"
         sodipodi:nodetypes="cc" />
      <path
         style="fill:none;fill-opacity:1;stroke:#ffffff;stroke-width:5;stroke-linecap:butt;stroke-linejoin:miter;stroke-miterlimit:4;stroke-dasharray:none;stroke-opacity:1"
         d="M 334.27897,83.409961 353.6308,74.895485 359.66621,84.89712 343.187,100.90789"
         id="path3103"
         sodipodi:nodetypes="cccc" />
      <path
         style="fill:none;stroke:#ffffff;stroke-width:5;stroke-linecap:butt;stroke-linejoin:miter;stroke-miterlimit:4;stroke-dasharray:none;stroke-opacity:1"
         d="m 282.34819,101.75404 c -0.97499,16.56392 11.14875,33.23286 21.9271,37.82315"
         id="path3105"
         sodipodi:nodetypes="cc" />
    </g>
  </g>
</svg>
