<?xml version="1.0" encoding="UTF-8" standalone="no"?>
<!-- Creator: CorelDRAW -->

<svg
   xml:space="preserve"
   width="139.70003mm"
   height="79.856667mm"
   version="1.1"
   style="clip-rule:evenodd;fill-rule:evenodd;image-rendering:optimizeQuality;shape-rendering:geometricPrecision;text-rendering:geometricPrecision"
   viewBox="0 0 13970.003 7985.6667"
   id="svg13"
   sodipodi:docname="WJTB_Radio.svg"
   xmlns:inkscape="http://www.inkscape.org/namespaces/inkscape"
   xmlns:sodipodi="http://sodipodi.sourceforge.net/DTD/sodipodi-0.dtd"
   xmlns="http://www.w3.org/2000/svg"
   xmlns:svg="http://www.w3.org/2000/svg"><sodipodi:namedview
   id="namedview15"
   pagecolor="#000000"
   bordercolor="#000000"
   borderopacity="0.25"
   inkscape:showpageshadow="2"
   inkscape:pageopacity="0"
   inkscape:pagecheckerboard="0"
   inkscape:deskcolor="#d1d1d1"
   inkscape:document-units="mm"
   showgrid="false" />
 <defs
   id="defs4"><style
     type="text/css"
     id="style2">
   <![CDATA[
    .fil0 {fill:#221F20}
   ]]>
  </style></defs>
 <g
   id="Layer_x0020_1"
   inkscape:label="Layer 1"
   inkscape:groupmode="layer"
   transform="translate(-3515,-10857.333)">
  <metadata
   id="CorelCorpID_0Corel-Layer" />
  <path
   class="fil0"
   d="m 14125,13768 c 119,-5 261,0 388,0 h 1562 c 143,0 234,-10 343,53 81,41 142,109 186,201 48,122 50,594 -5,716 -44,92 -112,160 -191,201 -104,58 -201,48 -338,48 h -1176 -769 z M 8628,11703 h 871 v 3284 h -480 l -391,838 h 932 c 231,-20 386,-99 516,-221 122,-112 259,-322 269,-569 5,-274 0,-561 0,-835 l -5,-3340 H 8244 Z m -2540,4122 899,-1900 -447,-1013 -48,74 -528,1135 -1519,-3256 -930,-5 2306,4965 z m 2296,0 910,-1940 v -1954 l -1039,2185 -1514,-3251 -925,-5 2307,4965 z m 2167,-4122 h 838 v 4122 h 841 l 5,-4122 h 1013 c 844,0 1694,0 2538,0 317,0 650,-69 802,223 64,127 49,295 49,460 0,193 -8,285 -112,399 -84,96 -186,137 -363,137 h -1527 -510 l -8,-1011 h -833 l -5,3914 h 3378 c 51,0 86,-2 104,-5 254,-35 440,-178 551,-328 158,-210 168,-383 168,-711 0,-490 58,-901 -221,-1308 -28,-38 -84,-101 -97,-132 191,-239 318,-465 318,-886 0,-209 0,-407 0,-615 0,-216 -5,-348 -89,-516 -127,-243 -381,-459 -754,-464 -407,-6 -813,0 -1220,0 h -4861 z"
   id="path7"
   style="fill:#fefefe;fill-opacity:1" /><path
   class="fil0"
   d="m 16185,16956 c 205,-49 431,48 548,137 480,373 295,1155 -317,1254 -422,77 -755,-236 -813,-569 -36,-226 38,-426 137,-558 112,-143 229,-211 445,-264 z m -12198,-11 h 765 c 396,0 475,417 254,607 -94,54 -274,79 -470,79 h -549 z m 1098,1108 c 299,-201 482,-295 503,-724 33,-666 -452,-859 -1027,-859 H 3518 v 2370 h 469 l 6,-734 h 543 l 500,734 h 577 z m 2875,-1003 841,1790 h 515 L 8219,16470 h -516 l -1104,2370 h 523 z m 2824,1310 -5,-1410 c 176,-5 353,-5 529,-5 190,0 315,-5 470,64 548,246 558,1029 5,1288 -153,73 -280,63 -465,63 z m 354,483 c 22,-3 40,-3 53,-3 317,0 528,10 787,-106 932,-437 917,-1743 -5,-2159 -180,-84 -335,-102 -520,-105 h -272 -877 v 2373 z m 2517,-3 h 475 l 7,-2370 h -482 z m 3817,-1036 c 54,-373 -91,-701 -259,-907 -162,-201 -411,-363 -764,-416 -618,-102 -1253,373 -1326,1023 -79,714 421,1245 1034,1326 376,46 685,-91 899,-264 200,-165 368,-407 416,-762 z"
   id="path9"
   style="fill:#fefefe;fill-opacity:1" />
 </g>
</svg>
