<?xml version="1.0" encoding="UTF-8" standalone="no"?>
<!-- Created with Inkscape (http://www.inkscape.org/) -->

<svg
   width="39.158283mm"
   height="39.158283mm"
   viewBox="0 0 39.158283 39.158283"
   version="1.1"
   id="svg5"
   sodipodi:docname="/tmp/ink_ext_XXXXXX.svg8LJ8U2"
   xmlns:inkscape="http://www.inkscape.org/namespaces/inkscape"
   xmlns:sodipodi="http://sodipodi.sourceforge.net/DTD/sodipodi-0.dtd"
   xmlns="http://www.w3.org/2000/svg"
   xmlns:svg="http://www.w3.org/2000/svg">
  <sodipodi:namedview
     id="namedview7"
     pagecolor="#ffffff"
     bordercolor="#000000"
     borderopacity="0.25"
     inkscape:showpageshadow="2"
     inkscape:pageopacity="0.0"
     inkscape:pagecheckerboard="0"
     inkscape:deskcolor="#d1d1d1"
     inkscape:document-units="mm"
     showgrid="false"
     inkscape:zoom="4.0962096"
     inkscape:cx="59.811393"
     inkscape:cy="65.182212"
     inkscape:window-width="1920"
     inkscape:window-height="1048"
     inkscape:window-x="0"
     inkscape:window-y="32"
     inkscape:window-maximized="1"
     inkscape:current-layer="layer1" />
  <defs
     id="defs2" />
  <g
     inkscape:label="Layer 1"
     inkscape:groupmode="layer"
     id="layer1"
     transform="translate(-85.069664,-144.28678)">
    <g
       inkscape:label="QR Code: https://wjtb.njit.edu/"
       transform="matrix(0.264583,0,0,0.264583,85.069664,144.28678)"
       id="g740">
      <rect
         x="0"
         y="0"
         width="148"
         height="148"
         style="fill:#ffffff;stroke:none"
         id="rect734" />
      <g
         style="fill:#000000;stroke:none"
         id="g738">
        <path
           d="m 127,132 h -2 c -0.55228,0 -1,-0.44772 -1,-1 v -10 c 0,-0.55228 -0.44772,-1 -1,-1 h -2 c -0.55228,0 -1,-0.44772 -1,-1 v -2 c 0,-0.55228 0.44772,-1 1,-1 h 6 c 0.55228,0 1,0.44772 1,1 v 2 c 0,0.55228 0.44771,1 1,1 h 2 c 0.55228,0 1,0.44772 1,1 v 6 c 0,0.55228 -0.44772,1 -1,1 h -2 c -0.55229,0 -1,0.44771 -1,1 v 2 c 0,0.55228 -0.44772,1 -1,1 z m -12,0 h -2 c -0.55228,0 -1,-0.44772 -1,-1 v -2 c 0,-0.55229 0.44772,-1 1,-1 h 2 c 0.55228,0 1,0.44771 1,1 v 2 c 0,0.55228 -0.44772,1 -1,1 z m -12,0 H 93 c -0.552285,0 -1,-0.44772 -1,-1 v -6 c 0,-0.55228 -0.447715,-1 -1,-1 h -2 c -0.552285,0 -1,-0.44772 -1,-1 v -2 c 0,-0.55228 0.447715,-1 1,-1 h 14 c 0.55228,0 1,0.44772 1,1 v 2 c 0,0.55228 0.44772,1 1,1 h 6 c 0.55228,0 1,0.44772 1,1 v 2 c 0,0.55228 -0.44772,1 -1,1 h -6 c -0.55228,0 -1,0.44771 -1,1 v 2 c 0,0.55228 -0.44772,1 -1,1 z m -16,0 h -2 c -0.552285,0 -1,-0.44772 -1,-1 v -6 c 0,-0.55228 0.447715,-1 1,-1 h 2 c 0.552285,0 1,0.44772 1,1 v 6 c 0,0.55228 -0.447715,1 -1,1 z m -8,0 h -2 c -0.552285,0 -1,-0.44772 -1,-1 v -2 c 0,-0.55229 0.447715,-1 1,-1 h 2 c 0.552285,0 1,0.44771 1,1 v 2 c 0,0.55228 -0.447715,1 -1,1 z m -8,0 h -2 c -0.552285,0 -1,-0.44772 -1,-1 v -6 c 0,-0.55228 0.447715,-1 1,-1 h 2 c 0.552285,0 1,0.44772 1,1 v 6 c 0,0.55228 -0.447715,1 -1,1 z m -12,0 h -2 c -0.552285,0 -1,-0.44772 -1,-1 v -2 c 0,-0.55229 -0.447715,-1 -1,-1 h -6 c -0.552285,0 -1,-0.44772 -1,-1 v -2 c 0,-0.55228 0.447715,-1 1,-1 h 10 c 0.552285,0 1,0.44772 1,1 v 6 c 0,0.55228 -0.447715,1 -1,1 z m -16,0 H 17 c -0.552285,0 -1,-0.44772 -1,-1 v -26 c 0,-0.55228 0.447715,-1 1,-1 h 26 c 0.552285,0 1,0.44772 1,1 v 26 c 0,0.55228 -0.447715,1 -1,1 z m 76,-4 h -2 c -0.55228,0 -1,-0.44772 -1,-1 v -2 c 0,-0.55228 0.44772,-1 1,-1 h 2 c 0.55228,0 1,0.44772 1,1 v 2 c 0,0.55228 -0.44772,1 -1,1 z m -19,-1 v -2 c 0,-0.55228 -0.447715,-1 -1,-1 h -2 c -0.552285,0 -1,0.44772 -1,1 v 2 c 0,0.55228 0.447715,1 1,1 h 2 c 0.552285,0 1,-0.44772 1,-1 z m -60,0 v -18 c 0,-0.55228 -0.447715,-1 -1,-1 H 21 c -0.552285,0 -1,0.44772 -1,1 v 18 c 0,0.55228 0.447715,1 1,1 h 18 c 0.552285,0 1,-0.44772 1,-1 z m 43,-3 h -2 c -0.552285,0 -1,-0.44772 -1,-1 v -6 c 0,-0.55228 0.447715,-1 1,-1 h 6 c 0.552285,0 1,0.44772 1,1 v 2 c 0,0.55228 -0.447715,1 -1,1 h -2 c -0.552285,0 -1,0.44772 -1,1 v 2 c 0,0.55228 -0.447715,1 -1,1 z m -16,0 h -2 c -0.552285,0 -1,-0.44772 -1,-1 v -2 c 0,-0.55228 0.447715,-1 1,-1 h 2 c 0.552285,0 1,0.44772 1,1 v 2 c 0,0.55228 -0.447715,1 -1,1 z m -32,0 H 25 c -0.552285,0 -1,-0.44772 -1,-1 v -10 c 0,-0.55228 0.447715,-1 1,-1 h 10 c 0.552285,0 1,0.44772 1,1 v 10 c 0,0.55228 -0.447715,1 -1,1 z m 76,-4 h -2 c -0.55228,0 -1,-0.44772 -1,-1 v -2 c 0,-0.55228 -0.44772,-1 -1,-1 H 89 c -0.552285,0 -1,-0.44772 -1,-1 v -2 c 0,-0.55228 -0.447715,-1 -1,-1 h -6 c -0.552285,0 -1,-0.44772 -1,-1 v -2 c 0,-0.55228 -0.447715,-1 -1,-1 h -2 c -0.552285,0 -1,-0.44772 -1,-1 v -6 c 0,-0.55228 0.447715,-1 1,-1 h 6 c 0.552285,0 1,0.44772 1,1 v 2 c 0,0.55228 0.447715,1 1,1 h 2 c 0.552285,0 1,0.44772 1,1 v 2 c 0,0.55228 0.447715,1 1,1 h 2 c 0.552285,0 1,-0.44772 1,-1 v -2 c 0,-0.55228 0.447715,-1 1,-1 h 2 c 0.552285,0 1,-0.44772 1,-1 v -6 c 0,-0.552285 -0.447715,-1 -1,-1 h -2 c -0.552285,0 -1,-0.447715 -1,-1 v -2 c 0,-0.552285 -0.447715,-1 -1,-1 h -2 c -0.552285,0 -1,-0.447715 -1,-1 v -2 c 0,-0.552285 -0.447715,-1 -1,-1 h -2 c -0.552285,0 -1,-0.447715 -1,-1 v -2 c 0,-0.552285 0.447715,-1 1,-1 h 6 c 0.552285,0 1,-0.447715 1,-1 v -6 c 0,-0.552285 0.447715,-1 1,-1 h 2 c 0.552285,0 1,-0.447715 1,-1 v -2 c 0,-0.552285 0.447715,-1 1,-1 h 2 c 0.552285,0 1,0.447715 1,1 v 2 c 0,0.552285 0.44772,1 1,1 h 2 c 0.55228,0 1,0.447715 1,1 v 2 c 0,0.552285 0.44772,1 1,1 h 2 c 0.55228,0 1,0.447715 1,1 v 2 c 0,0.552285 -0.44772,1 -1,1 H 97 c -0.552285,0 -1,0.447715 -1,1 v 6 c 0,0.552285 0.447715,1 1,1 h 2 c 0.552285,0 1,0.447715 1,1 v 2 c 0,0.552285 0.44772,1 1,1 h 14 c 0.55228,0 1,-0.447715 1,-1 v -6 c 0,-0.552285 0.44772,-1 1,-1 h 2 c 0.55228,0 1,0.447715 1,1 v 10 c 0,0.552285 -0.44772,1 -1,1 h -2 c -0.55228,0 -1,0.44772 -1,1 v 6 c 0,0.55228 0.44772,1 1,1 h 2 c 0.55228,0 1,0.44772 1,1 v 2 c 0,0.55228 -0.44772,1 -1,1 h -2 c -0.55228,0 -1,0.44772 -1,1 v 2 c 0,0.55228 -0.44772,1 -1,1 h -2 c -0.55228,0 -1,0.44772 -1,1 v 2 c 0,0.55228 -0.44772,1 -1,1 z m -40,0 h -2 c -0.552285,0 -1,-0.44772 -1,-1 v -10 c 0,-0.55228 0.447715,-1 1,-1 h 6 c 0.552285,0 1,0.44772 1,1 v 2 c 0,0.55228 0.447715,1 1,1 h 2 c 0.552285,0 1,0.44772 1,1 v 2 c 0,0.55228 -0.447715,1 -1,1 h -6 c -0.552285,0 -1,0.44772 -1,1 v 2 c 0,0.55228 -0.447715,1 -1,1 z m -8,0 h -2 c -0.552285,0 -1,-0.44772 -1,-1 v -6 c 0,-0.55228 0.447715,-1 1,-1 h 2 c 0.552285,0 1,0.44772 1,1 v 6 c 0,0.55228 -0.447715,1 -1,1 z m -8,0 h -2 c -0.552285,0 -1,-0.44772 -1,-1 v -2 c 0,-0.55228 -0.447715,-1 -1,-1 h -2 c -0.552285,0 -1,-0.44772 -1,-1 v -2 c 0,-0.55228 0.447715,-1 1,-1 h 2 c 0.552285,0 1,-0.44772 1,-1 v -2 c 0,-0.55228 0.447715,-1 1,-1 h 2 c 0.552285,0 1,-0.44772 1,-1 v -6 c 0,-0.55228 0.447715,-1 1,-1 h 2 c 0.552285,0 1,-0.447715 1,-1 v -6 c 0,-0.552285 0.447715,-1 1,-1 h 2 c 0.552285,0 1,0.447715 1,1 v 2 c 0,0.552285 0.447715,1 1,1 h 2 c 0.552285,0 1,0.447715 1,1 v 6 c 0,0.55228 -0.447715,1 -1,1 h -6 c -0.552285,0 -1,0.44772 -1,1 v 6 c 0,0.55228 -0.447715,1 -1,1 h -2 c -0.552285,0 -1,0.44772 -1,1 v 6 c 0,0.55228 -0.447715,1 -1,1 z m 76,-4 h -2 c -0.55229,0 -1,-0.44772 -1,-1 v -10 c 0,-0.55228 -0.44772,-1 -1,-1 h -6 c -0.55228,0 -1,-0.44772 -1,-1 v -2 c 0,-0.55228 0.44772,-1 1,-1 h 2 c 0.55228,0 1,-0.447715 1,-1 v -6 c 0,-0.552285 0.44772,-1 1,-1 h 2 c 0.55228,0 1,0.447715 1,1 v 6 c 0,0.552285 0.44771,1 1,1 h 2 c 0.55228,0 1,0.44772 1,1 v 14 c 0,0.55228 -0.44772,1 -1,1 z m -19,-5 v -10 c 0,-0.55228 -0.44772,-1 -1,-1 h -10 c -0.55228,0 -1,0.44772 -1,1 v 10 c 0,0.55228 0.44772,1 1,1 h 10 c 0.55228,0 1,-0.44772 1,-1 z m -5,-3 h -2 c -0.55228,0 -1,-0.44772 -1,-1 v -2 c 0,-0.55228 0.44772,-1 1,-1 h 2 c 0.55228,0 1,0.44772 1,1 v 2 c 0,0.55228 -0.44772,1 -1,1 z m -16,-4 h -2 c -0.552285,0 -1,-0.44772 -1,-1 v -2 c 0,-0.55228 0.447715,-1 1,-1 h 2 c 0.552285,0 1,0.44772 1,1 v 2 c 0,0.55228 -0.447715,1 -1,1 z m -40,0 h -2 c -0.552285,0 -1,-0.44772 -1,-1 v -2 c 0,-0.55228 -0.447715,-1 -1,-1 H 37 c -0.552285,0 -1,-0.447715 -1,-1 v -2 c 0,-0.552285 0.447715,-1 1,-1 h 10 c 0.552285,0 1,-0.447715 1,-1 v -6 c 0,-0.552285 0.447715,-1 1,-1 h 6 c 0.552285,0 1,0.447715 1,1 v 6 c 0,0.552285 -0.447715,1 -1,1 h -2 c -0.552285,0 -1,0.447715 -1,1 v 6 c 0,0.55228 -0.447715,1 -1,1 z m 36,-4 h -2 c -0.552285,0 -1,-0.447715 -1,-1 v -2 c 0,-0.552285 -0.447715,-1 -1,-1 H 73 c -0.552285,0 -1,-0.447715 -1,-1 v -6 c 0,-0.552285 0.447715,-1 1,-1 h 6 c 0.552285,0 1,0.447715 1,1 v 2 c 0,0.552285 0.447715,1 1,1 h 6 c 0.552285,0 1,0.447715 1,1 v 6 c 0,0.552285 -0.447715,1 -1,1 z m -64,0 h -6 c -0.552285,0 -1,-0.447715 -1,-1 v -2 c 0,-0.552285 0.447715,-1 1,-1 h 6 c 0.552285,0 1,0.447715 1,1 v 2 c 0,0.552285 -0.447715,1 -1,1 z m 4,-4 h -2 c -0.552285,0 -1,-0.447715 -1,-1 v -6 c 0,-0.552285 0.447715,-1 1,-1 h 2 c 0.552285,0 1,-0.447715 1,-1 v -2 c 0,-0.552285 0.447715,-1 1,-1 h 2 c 0.552285,0 1,0.447715 1,1 v 6 c 0,0.552285 -0.447715,1 -1,1 h -2 c -0.552285,0 -1,0.447715 -1,1 v 2 c 0,0.552285 -0.447715,1 -1,1 z m 104,-4 h -2 c -0.55229,0 -1,-0.447715 -1,-1 v -6 c 0,-0.552285 0.44771,-1 1,-1 h 2 c 0.55228,0 1,0.447715 1,1 v 6 c 0,0.552285 -0.44772,1 -1,1 z m -64,0 h -2 c -0.552285,0 -1,-0.447715 -1,-1 v -2 c 0,-0.552285 0.447715,-1 1,-1 h 2 c 0.552285,0 1,0.447715 1,1 v 2 c 0,0.552285 -0.447715,1 -1,1 z m -24,0 h -6 c -0.552285,0 -1,-0.447715 -1,-1 v -6 c 0,-0.552285 0.447715,-1 1,-1 h 2 c 0.552285,0 1,0.447715 1,1 v 2 c 0,0.552285 0.447715,1 1,1 h 2 c 0.552285,0 1,0.447715 1,1 v 2 c 0,0.552285 -0.447715,1 -1,1 z m 80,-4 h -2 c -0.55228,0 -1,-0.447715 -1,-1 v -2 c 0,-0.552285 0.44772,-1 1,-1 h 2 c 0.55228,0 1,0.447715 1,1 v 2 c 0,0.552285 -0.44772,1 -1,1 z m -8,0 h -2 c -0.55228,0 -1,-0.447715 -1,-1 v -2 c 0,-0.552285 0.44772,-1 1,-1 h 2 c 0.55228,0 1,0.447715 1,1 v 2 c 0,0.552285 -0.44772,1 -1,1 z m -52,0 h -6 c -0.552285,0 -1,-0.447715 -1,-1 v -2 c 0,-0.552285 0.447715,-1 1,-1 h 2 c 0.552285,0 1,-0.447715 1,-1 v -2 c 0,-0.552285 0.447715,-1 1,-1 h 2 c 0.552285,0 1,-0.447715 1,-1 v -2 c 0,-0.552285 -0.447715,-1 -1,-1 h -2 c -0.552285,0 -1,0.447715 -1,1 v 2 c 0,0.552285 -0.447715,1 -1,1 h -6 c -0.552285,0 -1,-0.447715 -1,-1 v -2 c 0,-0.552285 0.447715,-1 1,-1 h 2 c 0.552285,0 1,-0.447715 1,-1 v -6 c 0,-0.552285 -0.447715,-1 -1,-1 h -6 c -0.552285,0 -1,0.447715 -1,1 v 2 c 0,0.552285 0.447715,1 1,1 h 2 c 0.552285,0 1,0.447715 1,1 v 2 c 0,0.552285 -0.447715,1 -1,1 h -2 c -0.552285,0 -1,0.447715 -1,1 v 6 c 0,0.552285 -0.447715,1 -1,1 h -6 c -0.552285,0 -1,-0.447715 -1,-1 v -2 c 0,-0.552285 0.447715,-1 1,-1 h 2 c 0.552285,0 1,-0.447715 1,-1 v -2 c 0,-0.552285 -0.447715,-1 -1,-1 h -2 c -0.552285,0 -1,-0.447715 -1,-1 v -2 c 0,-0.552285 0.447715,-1 1,-1 h 2 c 0.552285,0 1,-0.447715 1,-1 v -2 c 0,-0.552285 -0.447715,-1 -1,-1 h -6 c -0.552285,0 -1,-0.447715 -1,-1 v -2 c 0,-0.552285 -0.447715,-1 -1,-1 H 25 c -0.552285,0 -1,-0.447715 -1,-1 v -6 c 0,-0.552285 0.447715,-1 1,-1 h 2 c 0.552285,0 1,0.447715 1,1 v 2 c 0,0.552285 0.447715,1 1,1 h 2 c 0.552285,0 1,-0.447715 1,-1 V 49 c 0,-0.552285 0.447715,-1 1,-1 h 2 c 0.552285,0 1,0.447715 1,1 v 10 c 0,0.552285 0.447715,1 1,1 h 2 c 0.552285,0 1,0.447715 1,1 v 2 c 0,0.552285 0.447715,1 1,1 h 2 c 0.552285,0 1,-0.447715 1,-1 v -2 c 0,-0.552285 -0.447715,-1 -1,-1 h -2 c -0.552285,0 -1,-0.447715 -1,-1 v -2 c 0,-0.552285 0.447715,-1 1,-1 h 6 c 0.552285,0 1,0.447715 1,1 v 6 c 0,0.552285 0.447715,1 1,1 h 10 c 0.552285,0 1,0.447715 1,1 v 6 c 0,0.552285 0.447715,1 1,1 h 10 c 0.552285,0 1,0.447715 1,1 v 2 c 0,0.552285 -0.447715,1 -1,1 h -2 c -0.552285,0 -1,0.447715 -1,1 v 6 c 0,0.552285 -0.447715,1 -1,1 h -2 c -0.552285,0 -1,0.447715 -1,1 v 2 c 0,0.552285 -0.447715,1 -1,1 z m -40,0 h -6 c -0.552285,0 -1,-0.447715 -1,-1 v -2 c 0,-0.552285 0.447715,-1 1,-1 h 6 c 0.552285,0 1,0.447715 1,1 v 2 c 0,0.552285 -0.447715,1 -1,1 z m 104,-4 h -2 c -0.55228,0 -1,-0.447715 -1,-1 V 73 c 0,-0.552285 0.44772,-1 1,-1 h 2 c 0.55228,0 1,-0.447715 1,-1 v -6 c 0,-0.552285 -0.44772,-1 -1,-1 h -2 c -0.55228,0 -1,-0.447715 -1,-1 v -2 c 0,-0.552285 0.44772,-1 1,-1 h 2 c 0.55228,0 1,-0.447715 1,-1 v -2 c 0,-0.552285 -0.44772,-1 -1,-1 h -2 c -0.55228,0 -1,-0.447715 -1,-1 v -2 c 0,-0.552285 0.44772,-1 1,-1 h 6 c 0.55228,0 1,0.447715 1,1 v 26 c 0,0.552285 -0.44772,1 -1,1 h -2 c -0.55229,0 -1,0.447715 -1,1 v 2 c 0,0.552285 -0.44772,1 -1,1 z m -44,0 h -2 c -0.552285,0 -1,-0.447715 -1,-1 v -2 c 0,-0.552285 -0.447715,-1 -1,-1 h -2 c -0.552285,0 -1,0.447715 -1,1 v 2 c 0,0.552285 -0.447715,1 -1,1 h -2 c -0.552285,0 -1,-0.447715 -1,-1 v -6 c 0,-0.552285 0.447715,-1 1,-1 h 6 c 0.552285,0 1,-0.447715 1,-1 v -2 c 0,-0.552285 0.447715,-1 1,-1 h 2 c 0.552285,0 1,0.447715 1,1 v 10 c 0,0.552285 -0.447715,1 -1,1 z m -48,0 h -2 c -0.552285,0 -1,-0.447715 -1,-1 v -2 c 0,-0.552285 0.447715,-1 1,-1 h 2 c 0.552285,0 1,0.447715 1,1 v 2 c 0,0.552285 -0.447715,1 -1,1 z m -8,0 h -2 c -0.552285,0 -1,-0.447715 -1,-1 v -6 c 0,-0.552285 -0.447715,-1 -1,-1 h -2 c -0.552285,0 -1,-0.447715 -1,-1 v -2 c 0,-0.552285 0.447715,-1 1,-1 h 2 c 0.552285,0 1,-0.447715 1,-1 v -2 c 0,-0.552285 0.447715,-1 1,-1 h 2 c 0.552285,0 1,0.447715 1,1 v 14 c 0,0.552285 -0.447715,1 -1,1 z m 92,-4 h -2 c -0.55228,0 -1,-0.447715 -1,-1 v -2 c 0,-0.552285 0.44772,-1 1,-1 h 2 c 0.55228,0 1,0.447715 1,1 v 2 c 0,0.552285 -0.44772,1 -1,1 z m -8,0 h -2 c -0.55228,0 -1,-0.447715 -1,-1 v -2 c 0,-0.552285 0.44772,-1 1,-1 h 2 c 0.55228,0 1,0.447715 1,1 v 2 c 0,0.552285 -0.44772,1 -1,1 z m -92,0 h -2 c -0.552285,0 -1,-0.447715 -1,-1 v -2 c 0,-0.552285 0.447715,-1 1,-1 h 2 c 0.552285,0 1,0.447715 1,1 v 2 c 0,0.552285 -0.447715,1 -1,1 z m 96,-4 h -2 c -0.55228,0 -1,-0.447715 -1,-1 v -6 c 0,-0.552285 0.44772,-1 1,-1 h 2 c 0.55228,0 1,0.447715 1,1 v 6 c 0,0.552285 -0.44772,1 -1,1 z m -24,0 h -2 c -0.552285,0 -1,-0.447715 -1,-1 v -2 c 0,-0.552285 -0.447715,-1 -1,-1 h -2 c -0.552285,0 -1,-0.447715 -1,-1 v -6 c 0,-0.552285 -0.447715,-1 -1,-1 h -2 c -0.552285,0 -1,-0.447715 -1,-1 v -2 c 0,-0.552285 -0.447715,-1 -1,-1 h -6 c -0.552285,0 -1,-0.447715 -1,-1 v -2 c 0,-0.552285 -0.447715,-1 -1,-1 h -6 c -0.552285,0 -1,-0.447715 -1,-1 v -2 c 0,-0.552285 0.447715,-1 1,-1 h 2 c 0.552285,0 1,-0.447715 1,-1 v -2 c 0,-0.552285 0.447715,-1 1,-1 h 2 c 0.552285,0 1,0.447715 1,1 v 2 c 0,0.552285 0.447715,1 1,1 h 2 c 0.552285,0 1,-0.447715 1,-1 v -2 c 0,-0.552285 0.447715,-1 1,-1 h 6 c 0.552285,0 1,0.447715 1,1 v 2 c 0,0.552285 -0.447715,1 -1,1 h -2 c -0.552285,0 -1,0.447715 -1,1 v 2 c 0,0.552285 0.447715,1 1,1 h 2 c 0.552285,0 1,0.447715 1,1 v 2 c 0,0.552285 0.447715,1 1,1 h 2 c 0.552285,0 1,0.447715 1,1 v 2 c 0,0.552285 0.447715,1 1,1 h 10 c 0.552285,0 1,0.447715 1,1 v 2 c 0,0.552285 -0.447715,1 -1,1 h -6 c -0.552285,0 -1,0.447715 -1,1 v 6 c 0,0.552285 -0.447715,1 -1,1 z m 32,-4 h -2 c -0.55228,0 -1,-0.447715 -1,-1 v -2 c 0,-0.552285 0.44772,-1 1,-1 h 2 c 0.55228,0 1,0.447715 1,1 v 2 c 0,0.552285 -0.44772,1 -1,1 z m -16,0 h -2 c -0.55228,0 -1,-0.447715 -1,-1 v -2 c 0,-0.552285 0.44772,-1 1,-1 h 2 c 0.55228,0 1,0.447715 1,1 v 2 c 0,0.552285 -0.44772,1 -1,1 z m -28,0 h -6 c -0.552285,0 -1,-0.447715 -1,-1 v -2 c 0,-0.552285 0.447715,-1 1,-1 h 6 c 0.552285,0 1,0.447715 1,1 v 2 c 0,0.552285 -0.447715,1 -1,1 z m 40,-4 h -2 c -0.55228,0 -1,-0.447715 -1,-1 v -2 c 0,-0.552285 -0.44772,-1 -1,-1 h -2 c -0.55228,0 -1,-0.447715 -1,-1 V 53 c 0,-0.552285 -0.44772,-1 -1,-1 h -2 c -0.55228,0 -1,-0.447715 -1,-1 v -2 c 0,-0.552285 0.44772,-1 1,-1 h 6 c 0.55228,0 1,0.447715 1,1 v 10 c 0,0.552285 0.44772,1 1,1 h 2 c 0.55228,0 1,0.447715 1,1 v 6 c 0,0.552285 -0.44772,1 -1,1 z m -8,0 h -2 c -0.55228,0 -1,-0.447715 -1,-1 v -2 c 0,-0.552285 0.44772,-1 1,-1 h 2 c 0.55228,0 1,0.447715 1,1 v 2 c 0,0.552285 -0.44772,1 -1,1 z m -40,0 h -6 c -0.552285,0 -1,-0.447715 -1,-1 v -6 c 0,-0.552285 0.447715,-1 1,-1 h 6 c 0.552285,0 1,0.447715 1,1 v 6 c 0,0.552285 -0.447715,1 -1,1 z m -48,0 h -6 c -0.552285,0 -1,-0.447715 -1,-1 v -2 c 0,-0.552285 0.447715,-1 1,-1 h 6 c 0.552285,0 1,0.447715 1,1 v 2 c 0,0.552285 -0.447715,1 -1,1 z m 80,-4 h -2 c -0.55228,0 -1,-0.447715 -1,-1 v -2 c 0,-0.552285 -0.447715,-1 -1,-1 h -2 c -0.552285,0 -1,-0.447715 -1,-1 v -2 c 0,-0.552285 -0.447715,-1 -1,-1 h -2 c -0.552285,0 -1,-0.447715 -1,-1 v -2 c 0,-0.552285 0.447715,-1 1,-1 h 6 c 0.552285,0 1,0.447715 1,1 v 2 c 0,0.552285 0.44772,1 1,1 h 2 c 0.55228,0 1,0.447715 1,1 v 6 c 0,0.552285 -0.44772,1 -1,1 z m 20,-4 h -2 c -0.55228,0 -1,-0.447715 -1,-1 v -2 c 0,-0.552285 0.44772,-1 1,-1 h 2 c 0.55228,0 1,0.447715 1,1 v 2 c 0,0.552285 -0.44772,1 -1,1 z m -60,0 h -2 c -0.552285,0 -1,-0.447715 -1,-1 v -2 c 0,-0.552285 0.447715,-1 1,-1 h 2 c 0.552285,0 1,0.447715 1,1 v 2 c 0,0.552285 -0.447715,1 -1,1 z m -8,0 h -2 c -0.552285,0 -1,-0.447715 -1,-1 v -6 c 0,-0.552285 0.447715,-1 1,-1 h 2 c 0.552285,0 1,0.447715 1,1 v 6 c 0,0.552285 -0.447715,1 -1,1 z m -36,0 h -2 c -0.552285,0 -1,-0.447715 -1,-1 v -2 c 0,-0.552285 0.447715,-1 1,-1 h 2 c 0.552285,0 1,0.447715 1,1 v 2 c 0,0.552285 -0.447715,1 -1,1 z m 104,-8 h -2 c -0.55228,0 -1,-0.447715 -1,-1 v -2 c 0,-0.552285 0.44772,-1 1,-1 h 2 c 0.55228,0 1,0.447715 1,1 v 2 c 0,0.552285 -0.44772,1 -1,1 z m -20,0 h -2 c -0.55228,0 -1,-0.447715 -1,-1 v -2 c 0,-0.552285 0.44772,-1 1,-1 h 2 c 0.55228,0 1,0.447715 1,1 v 2 c 0,0.552285 -0.44772,1 -1,1 z m -12,0 h -2 c -0.552285,0 -1,-0.447715 -1,-1 v -2 c 0,-0.552285 -0.447715,-1 -1,-1 h -2 c -0.552285,0 -1,-0.447715 -1,-1 v -2 c 0,-0.552285 0.447715,-1 1,-1 h 2 c 0.552285,0 1,-0.447715 1,-1 V 29 c 0,-0.552285 0.447715,-1 1,-1 h 2 c 0.552285,0 1,-0.447715 1,-1 v -2 c 0,-0.552285 0.447715,-1 1,-1 h 2 c 0.552285,0 1,-0.447715 1,-1 v -2 c 0,-0.552285 0.447715,-1 1,-1 h 2 c 0.552285,0 1,0.447715 1,1 v 10 c 0,0.552285 -0.447715,1 -1,1 h -6 c -0.552285,0 -1,0.447715 -1,1 v 2 c 0,0.552285 0.447715,1 1,1 h 6 c 0.552285,0 1,0.447715 1,1 v 6 c 0,0.552285 -0.447715,1 -1,1 h -2 c -0.552285,0 -1,-0.447715 -1,-1 v -2 c 0,-0.552285 -0.447715,-1 -1,-1 h -2 c -0.552285,0 -1,0.447715 -1,1 v 2 c 0,0.552285 0.447715,1 1,1 h 2 c 0.552285,0 1,0.447715 1,1 v 2 c 0,0.552285 -0.447715,1 -1,1 h -2 c -0.552285,0 -1,0.447715 -1,1 v 2 c 0,0.552285 -0.447715,1 -1,1 z m -32,0 h -2 c -0.552285,0 -1,-0.447715 -1,-1 v -2 c 0,-0.552285 0.447715,-1 1,-1 h 2 c 0.552285,0 1,0.447715 1,1 v 2 c 0,0.552285 -0.447715,1 -1,1 z m -8,0 h -2 c -0.552285,0 -1,-0.447715 -1,-1 v -2 c 0,-0.552285 0.447715,-1 1,-1 h 2 c 0.552285,0 1,0.447715 1,1 v 2 c 0,0.552285 -0.447715,1 -1,1 z m -8,0 h -2 c -0.552285,0 -1,-0.447715 -1,-1 v -2 c 0,-0.552285 0.447715,-1 1,-1 h 2 c 0.552285,0 1,0.447715 1,1 v 2 c 0,0.552285 -0.447715,1 -1,1 z m -20,0 h -2 c -0.552285,0 -1,-0.447715 -1,-1 v -2 c 0,-0.552285 0.447715,-1 1,-1 h 2 c 0.552285,0 1,0.447715 1,1 v 2 c 0,0.552285 -0.447715,1 -1,1 z m 44,-4 h -6 c -0.552285,0 -1,-0.447715 -1,-1 v -2 c 0,-0.552285 0.447715,-1 1,-1 h 2 c 0.552285,0 1,-0.447715 1,-1 v -2 c 0,-0.552285 -0.447715,-1 -1,-1 h -2 c -0.552285,0 -1,0.447715 -1,1 v 2 c 0,0.552285 -0.447715,1 -1,1 h -2 c -0.552285,0 -1,-0.447715 -1,-1 v -2 c 0,-0.552285 -0.447715,-1 -1,-1 h -2 c -0.552285,0 -1,0.447715 -1,1 v 2 c 0,0.552285 -0.447715,1 -1,1 h -2 c -0.552285,0 -1,-0.447715 -1,-1 V 33 c 0,-0.552285 0.447715,-1 1,-1 h 6 c 0.552285,0 1,0.447715 1,1 v 2 c 0,0.552285 0.447715,1 1,1 h 6 c 0.552285,0 1,-0.447715 1,-1 v -2 c 0,-0.552285 0.447715,-1 1,-1 h 2 c 0.552285,0 1,0.447715 1,1 v 2 c 0,0.552285 0.447715,1 1,1 h 2 c 0.552285,0 1,-0.447715 1,-1 v -2 c 0,-0.552285 -0.447715,-1 -1,-1 h -2 c -0.552285,0 -1,-0.447715 -1,-1 v -2 c 0,-0.552285 -0.447715,-1 -1,-1 h -2 c -0.552285,0 -1,0.447715 -1,1 v 2 c 0,0.552285 -0.447715,1 -1,1 h -2 c -0.552285,0 -1,-0.447715 -1,-1 v -2 c 0,-0.552285 -0.447715,-1 -1,-1 H 49 c -0.552285,0 -1,-0.447715 -1,-1 v -2 c 0,-0.552285 0.447715,-1 1,-1 h 10 c 0.552285,0 1,-0.447715 1,-1 v -6 c 0,-0.552285 0.447715,-1 1,-1 h 2 c 0.552285,0 1,0.447715 1,1 v 6 c 0,0.552285 0.447715,1 1,1 h 6 c 0.552285,0 1,0.447715 1,1 v 2 c 0,0.552285 0.447715,1 1,1 h 2 c 0.552285,0 1,-0.447715 1,-1 v -2 c 0,-0.552285 0.447715,-1 1,-1 h 10 c 0.552285,0 1,0.447715 1,1 v 2 c 0,0.552285 -0.447715,1 -1,1 h -6 c -0.552285,0 -1,0.447715 -1,1 v 2 c 0,0.552285 -0.447715,1 -1,1 h -2 c -0.552285,0 -1,0.447715 -1,1 v 10 c 0,0.552285 -0.447715,1 -1,1 h -2 c -0.552285,0 -1,-0.447715 -1,-1 v -2 c 0,-0.552285 -0.447715,-1 -1,-1 h -2 c -0.552285,0 -1,0.447715 -1,1 v 6 c 0,0.552285 -0.447715,1 -1,1 z m -12,0 h -2 c -0.552285,0 -1,-0.447715 -1,-1 v -2 c 0,-0.552285 0.447715,-1 1,-1 h 2 c 0.552285,0 1,0.447715 1,1 v 2 c 0,0.552285 -0.447715,1 -1,1 z m 76,-4 h -26 c -0.55228,0 -1,-0.447715 -1,-1 V 17 c 0,-0.552285 0.44772,-1 1,-1 h 26 c 0.55228,0 1,0.447715 1,1 v 26 c 0,0.552285 -0.44772,1 -1,1 z m -48,0 h -2 c -0.552285,0 -1,-0.447715 -1,-1 V 33 c 0,-0.552285 0.447715,-1 1,-1 h 2 c 0.552285,0 1,0.447715 1,1 v 10 c 0,0.552285 -0.447715,1 -1,1 z M 43,44 H 17 c -0.552285,0 -1,-0.447715 -1,-1 V 17 c 0,-0.552285 0.447715,-1 1,-1 h 26 c 0.552285,0 1,0.447715 1,1 v 26 c 0,0.552285 -0.447715,1 -1,1 z m 85,-5 V 21 c 0,-0.552285 -0.44772,-1 -1,-1 h -18 c -0.55228,0 -1,0.447715 -1,1 v 18 c 0,0.552285 0.44772,1 1,1 h 18 c 0.55228,0 1,-0.447715 1,-1 z M 40,39 V 21 c 0,-0.552285 -0.447715,-1 -1,-1 H 21 c -0.552285,0 -1,0.447715 -1,1 v 18 c 0,0.552285 0.447715,1 1,1 h 18 c 0.552285,0 1,-0.447715 1,-1 z m 83,-3 h -10 c -0.55228,0 -1,-0.447715 -1,-1 V 25 c 0,-0.552285 0.44772,-1 1,-1 h 10 c 0.55228,0 1,0.447715 1,1 v 10 c 0,0.552285 -0.44772,1 -1,1 z M 35,36 H 25 c -0.552285,0 -1,-0.447715 -1,-1 V 25 c 0,-0.552285 0.447715,-1 1,-1 h 10 c 0.552285,0 1,0.447715 1,1 v 10 c 0,0.552285 -0.447715,1 -1,1 z M 75,24 h -2 c -0.552285,0 -1,-0.447715 -1,-1 v -6 c 0,-0.552285 0.447715,-1 1,-1 h 2 c 0.552285,0 1,0.447715 1,1 v 6 c 0,0.552285 -0.447715,1 -1,1 z m 20,-4 h -6 c -0.552285,0 -1,-0.447715 -1,-1 v -2 c 0,-0.552285 0.447715,-1 1,-1 h 6 c 0.552285,0 1,0.447715 1,1 v 2 c 0,0.552285 -0.447715,1 -1,1 z m -40,0 h -2 c -0.552285,0 -1,-0.447715 -1,-1 v -2 c 0,-0.552285 0.447715,-1 1,-1 h 2 c 0.552285,0 1,0.447715 1,1 v 2 c 0,0.552285 -0.447715,1 -1,1 z"
           id="path736" />
      </g>
    </g>
  </g>
</svg>
